<svg id="レイヤー_1" data-name="レイヤー 1" xmlns="http://www.w3.org/2000/svg" viewBox="0 0 307.74 317.67"><defs><style>.cls-1{fill:#f8b62d;}.cls-2{fill:#fff;}</style></defs><path class="cls-1" d="M312.5,209.49l-46-20.91a172.61,172.61,0,0,0-39.81-12.5c-45.5-8.78-94.06-2.41-128.27,14.32L52.85,212.3l.36,33c-.46,30.15,32.69,58.26,86.15,68.57,67.52,13,141.8-7.27,165.91-45.32,5.25-8.28,7.68-16.72,7.59-25h0Z" transform="translate(-5.13 -0.17)"/><ellipse class="cls-1" cx="182.65" cy="210.89" rx="129.82" ry="72.82" transform="translate(-7.4 1.82) rotate(-0.62)"/><ellipse class="cls-2" cx="182.65" cy="210.89" rx="107.19" ry="60.13" transform="translate(-7.4 1.82) rotate(-0.62)"/><path class="cls-1" d="M310.92,165.51,265.14,144.1a172.41,172.41,0,0,0-39.68-12.92c-45.4-9.27-94-3.43-128.42,12.92L51.26,165.51v33c-.8,30.14,32.05,58.61,85.4,69.5,67.37,13.76,141.87-5.73,166.39-43.52,5.34-8.22,7.86-16.63,7.86-24.91h0Z" transform="translate(-5.13 -0.17)"/><ellipse class="cls-1" cx="175.94" cy="165.35" rx="129.82" ry="72.82"/><ellipse class="cls-2" cx="175.94" cy="165.35" rx="107.19" ry="60.13"/><path class="cls-1" d="M266.84,132.76l-45.78-21.41a172.64,172.64,0,0,0-39.67-12.93C136,89.15,87.37,95,53,111.35L7.18,132.76v33c-.79,30.14,32.06,58.61,85.41,69.5C160,249,234.46,229.55,259,191.75c5.33-8.22,7.86-16.63,7.86-24.9h0Z" transform="translate(-5.13 -0.17)"/><path class="cls-1" d="M137,206.6a222.64,222.64,0,0,1-44.59-4.44c-41.61-8.49-72.54-28.09-82.74-52.41C3.74,135.64,5.3,121,14.16,107.31,32.94,78.36,82.3,58.92,137,58.92a223.45,223.45,0,0,1,44.59,4.43c41.61,8.49,72.54,28.09,82.74,52.42,5.91,14.1,4.35,28.78-4.51,42.44C241,187.15,191.67,206.6,137,206.6Z" transform="translate(-5.13 -0.17)"/><path class="cls-2" d="M137,59.92a222.9,222.9,0,0,1,44.39,4.41C248.76,78.08,283.5,119.87,259,157.66c-19.19,29.57-69,47.94-122,47.94a222.1,222.1,0,0,1-44.39-4.42C25.21,187.43-9.52,145.64,15,107.85,34.18,78.28,84,59.92,137,59.92m0-2h0c-26.62,0-52.35,4.5-74.41,13-22.71,8.76-39.75,21.15-49.27,35.83-9,13.95-10.64,29-4.59,43.37,10.32,24.64,41.52,44.45,83.46,53A224,224,0,0,0,137,207.6c26.62,0,52.35-4.5,74.41-13,22.71-8.76,39.74-21.15,49.27-35.83,9-13.95,10.63-28.94,4.59-43.37-10.33-24.63-41.53-44.45-83.46-53A224,224,0,0,0,137,57.92Z" transform="translate(-5.13 -0.17)"/><ellipse class="cls-2" cx="131.86" cy="132.59" rx="107.19" ry="60.13"/><path class="cls-1" d="M278.17,76,231.78,54.29a174.76,174.76,0,0,0-40.21-13.1c-46-9.4-95.29-3.47-130.15,13.1L15,76v33.47c-.8,30.55,32.49,59.39,86.55,70.43,68.28,13.94,143.78-5.81,168.63-44.1,5.41-8.34,8-16.86,8-25.25h0Z" transform="translate(-5.13 -0.17)"/><path class="cls-1" d="M146.56,150.8a226.42,226.42,0,0,1-45.19-4.49c-42.16-8.61-73.5-28.46-83.83-53.11-6-14.29-4.42-29.16,4.56-43,19-29.33,69.06-49,124.48-49a226.42,226.42,0,0,1,45.19,4.49c42.16,8.61,73.5,28.46,83.84,53.11,6,14.29,4.41,29.16-4.57,43C252,131.1,202,150.8,146.56,150.8Z" transform="translate(-5.13 -0.17)"/><path class="cls-2" d="M146.58,2.17a225.14,225.14,0,0,1,45,4.47c68.28,13.94,103.48,56.29,78.63,94.59-19.44,30-69.9,48.57-123.64,48.57a225.21,225.21,0,0,1-45-4.47C33.3,131.39-1.91,89,22.94,50.74c19.45-30,69.91-48.57,123.64-48.57m0-2h0c-27,0-53.05,4.56-75.4,13.18-23,8.88-40.27,21.44-49.92,36.31C12.1,63.78,10.49,79,16.61,93.58c10.46,25,42.07,45,84.56,53.71a227.76,227.76,0,0,0,45.39,4.51c27,0,53.05-4.56,75.4-13.18,23-8.88,40.27-21.44,49.92-36.31C281,88.19,282.65,73,276.53,58.39c-10.46-25-42.07-45-84.56-53.71A226.85,226.85,0,0,0,146.59.17Z" transform="translate(-5.13 -0.17)"/><ellipse class="cls-2" cx="141.45" cy="75.82" rx="108.63" ry="60.93"/><path class="cls-1" d="M187.16,75.26c5.63,0,10.2-2.4,10.2-5.36s-4.57-5.36-10.2-5.36H165.88l30.48-13.41c5.18-2.28,5.87-6.34,1.53-9.06s-12.06-3.09-17.24-.81l-32.73,14.4L113,41.15c-5.3-2.21-13-1.73-17.19,1.05s-3.29,6.84,2,9l32,13.3H105.39c-5.64,0-10.2,2.4-10.2,5.36s4.56,5.36,10.2,5.36h27.3v6.09h-27.3c-5.64,0-10.2,2.41-10.2,5.37s4.56,5.36,10.2,5.36h27.3v9.06c0,4.15,6.39,7.51,14.28,7.51s14.28-3.36,14.28-7.51V92.08h25.91c5.63,0,10.2-2.4,10.2-5.36s-4.57-5.37-10.2-5.37H161.25V75.26Z" transform="translate(-5.13 -0.17)"/></svg>